<svg xmlns="http://www.w3.org/2000/svg" viewBox="0 0 1011.16 627.46"><defs><style>.cls-1{fill:#c1a57b;}.cls-2{fill:#a38257;}.cls-3{fill:#6b4e28;}.cls-4{fill:#cbe6ed;}.cls-5{fill:#f2f2f2;}.cls-6{fill:none;stroke:#cbe5ed;stroke-linecap:round;stroke-miterlimit:10;stroke-width:15px;}.cls-7{fill:#cbe5ed;}.cls-8{fill:#e3472c;}.cls-9{fill:#f5f6e8;}.cls-10{fill:#e3544a;}.cls-11{fill:#e3635e;}</style></defs><g id="Camada_2" data-name="Camada 2"><g id="Camada_1-2" data-name="Camada 1"><path class="cls-1" d="M618.05,422.46c9.4,62.29,5,109.43-1.54,142.52-3.43,17.23-8.79,37.44,2.31,50.07,14.64,16.68,55.49,17.39,67-3.08,8.69-15.42-.12-41.33-13.1-45.45-11.49-3.65-21.71,11.23-27,7.7-9.54-6.4,26.35-54.09,17-106.31a103.68,103.68,0,0,0-14.64-37"/><path class="cls-2" d="M639.42,547.43c-1.63-.74,3.93-16.16,6.26-46,2-26-.09-40.89,1.51-41,1.88-.11,8.16,20.13,6.8,42.46C652.42,528.53,641.34,548.29,639.42,547.43Z"/><path class="cls-1" d="M231.94,217.41c-12.83,14.14-39.86-6.44-86.78-4.13-39.33,1.93-79.55,19.31-80.16,35.53-.57,15.31,34.3,24.4,31.41,37.19-1.52,6.73-12.94,12.13-21.49,9.92-14.27-3.7-15.38-27.31-24-27.27s-9.12,23-23.14,27.27C17.25,299.16,2,290.94.54,281.87c-2.24-14.22,30.31-25.82,27.27-37.19-2.39-9-23.6-5.46-27.27-15.7-3.89-10.87,14-31.67,27.27-29.75,8.7,1.25,8.75,11.24,17.36,15.7,17.67,9.15,40.42-21,78.51-37.19,39.07-16.56,92.77-17.69,108.26,5.79C238.4,193.34,239.37,209.21,231.94,217.41Z"/><path class="cls-1" d="M779.22,217.41c12.83,14.14,39.86-6.44,86.77-4.13,39.34,1.93,79.56,19.31,80.16,35.53.58,15.31-34.29,24.4-31.4,37.19,1.52,6.73,12.94,12.13,21.49,9.92,14.27-3.7,15.38-27.31,24-27.27s9.13,23,23.14,27.27c10.57,3.24,25.84-5,27.27-14.05,2.25-14.22-30.31-25.82-27.27-37.19,2.4-9,23.61-5.46,27.27-15.7,3.9-10.87-14-31.67-27.27-29.75-8.7,1.25-8.74,11.24-17.35,15.7-17.67,9.15-40.43-21-78.51-37.19-39.07-16.56-92.77-17.69-108.26,5.79C772.75,193.34,771.78,209.21,779.22,217.41Z"/><path class="cls-2" d="M621.67,587.63c-1.46-4.25-1.62-7-2-7-.87.08-4,15.67,2.6,25.71,12.1,18.37,50.41,8.29,50.4,7.29s-30.77,1.74-42-11A50.45,50.45,0,0,1,621.67,587.63Z"/><path class="cls-1" d="M395.43,422.46C386,484.75,390.4,531.89,397,565c3.42,17.23,8.79,37.44-2.31,50.07-14.65,16.68-55.49,17.39-67-3.08-8.68-15.42.12-41.33,13.1-45.45,11.49-3.65,21.71,11.23,27,7.7,9.55-6.4-26.34-54.09-16.95-106.31a104.06,104.06,0,0,1,14.64-37"/><path class="cls-2" d="M374.05,547.43c1.63-.74-3.92-16.16-6.26-46-2-26,.1-40.89-1.51-41-1.88-.11-8.16,20.13-6.79,42.46C361.05,528.53,372.14,548.29,374.05,547.43Z"/><path class="cls-2" d="M98.43,205.82c1.11,1.4,14.7-7.76,43-17.34,24.71-8.35,39.67-9.93,39.36-11.51-.35-1.85-21.51-3-42.83,3.82C113.57,188.59,97.13,204.17,98.43,205.82Z"/><path class="cls-2" d="M909.34,200.16c-1.05,1.44-15-7.17-43.71-15.61-25-7.35-40-8.33-39.78-9.92.28-1.86,21.37-3.83,42.95,2.11C893.53,183.55,910.58,198.46,909.34,200.16Z"/><path class="cls-2" d="M388.8,590.63c1.47-4.25,1.63-7,2-7,.88.08,4,15.67-2.59,25.71-12.11,18.37-50.42,8.29-50.41,7.29s30.77,1.74,42-11A50.2,50.2,0,0,0,388.8,590.63Z"/><rect class="cls-1" x="190.66" y="20.02" width="622" height="410" rx="31.15"/><rect class="cls-3" x="477.66" y="21.77" width="48" height="408"/><rect class="cls-4" x="219.16" y="79.77" width="573" height="339" rx="28.31"/><path class="cls-5" d="M219.16,401.77l2-.64a482.6,482.6,0,0,1,289,.64h0v-384l-23-4.93A580.06,580.06,0,0,0,421.52,2.67c-3-.28-7.4-.69-13-1.09C398.74.86,385.4.13,370.26,0A597.52,597.52,0,0,0,253.09,11l-33.93,6.73Z"/><path class="cls-5" d="M791.16,401.77l-2-.64a457,457,0,0,0-281,.64h0v-384l22.33-4.93A549.47,549.47,0,0,1,758.16,11l33,6.73Z"/><path class="cls-6" d="M243.66,54.77a367.3,367.3,0,0,1,240-4"/><path class="cls-6" d="M243.66,110.77a367.3,367.3,0,0,1,240-4"/><path class="cls-6" d="M243.66,166.77a367.3,367.3,0,0,1,240-4"/><path class="cls-6" d="M243.66,222.77a367.3,367.3,0,0,1,240-4"/><path class="cls-6" d="M243.66,278.77a367.3,367.3,0,0,1,240-4"/><path class="cls-6" d="M243.66,334.77a367.3,367.3,0,0,1,240-4"/><path class="cls-6" d="M530.66,110.77a367.3,367.3,0,0,1,240-4"/><path class="cls-6" d="M530.66,166.77a367.3,367.3,0,0,1,240-4"/><path class="cls-6" d="M530.66,222.77a367.3,367.3,0,0,1,240-4"/><path class="cls-6" d="M530.66,278.77a367.3,367.3,0,0,1,240-4"/><path class="cls-6" d="M530.66,334.77a367.3,367.3,0,0,1,240-4"/><path class="cls-7" d="M772.16,45.77v23c0,3.86-3.78,7-8.44,7l-51.33-13A351.36,351.36,0,0,0,596,61.66l-63.4,14.11c-4.66,0-8.43-3.13-8.43-7v-23c0-3.86,3.77-7,8.43-7l49-9.5a347.37,347.37,0,0,1,129.48-.37l52.61,9.87Q767.95,42.27,772.16,45.77Z"/><path id="sombrancelha" d="M604.2,116.89c-1.21-4.39,21.42-21.1,44.87-17.21,28.08,4.64,44.74,36.73,41.75,40-2.28,2.46-14.85-13.08-41.59-19.75C623.21,113.41,605.24,120.65,604.2,116.89Z"/><path class="cls-8" d="M478.16,10.77q-.51,26-1,52l-28,36-26-35q.49-30,1-60a249.88,249.88,0,0,1,54,7Z"/><ellipse id="olho" cx="617.16" cy="186.77" rx="33" ry="36.5"/><circle id="olho-2" data-name="olho" class="cls-9" cx="609.16" cy="186.77" r="12"/><path id="sombrancelha-2" data-name="sombrancelha" d="M384.12,121.89c1.21-4.39-21.41-21.1-44.86-17.21-28.09,4.64-44.75,36.73-41.76,40,2.28,2.46,14.85-13.08,41.6-19.75C365.11,118.41,383.08,125.65,384.12,121.89Z"/><ellipse id="olho-3" data-name="olho" cx="380.17" cy="190.77" rx="33" ry="36.5"/><circle id="olho-4" data-name="olho" class="cls-9" cx="388.17" cy="190.77" r="12"/><path id="boca" class="cls-8" d="M443.16,281.77c2.63-3.49,25.4,21.54,59,19,33.28-2.52,51.31-30.13,56-26,5.49,4.85-10.14,51-44,58C473.51,341.2,439.62,286.45,443.16,281.77Z"/><path class="cls-10" d="M528.44,327.06c-1.16-6.14-7.22-12.78-11.65-12.28-5.5.63-11,12.53-7.55,18.7a42.88,42.88,0,0,0,4.92-.71A45.16,45.16,0,0,0,528.44,327.06Z"/><path class="cls-11" d="M518.16,317.77c.57-.48,4.24,2.11,6,6,.84,1.87,1.56,4.74,1,5C524,329.29,517.18,318.58,518.16,317.77Z"/></g></g></svg>